# Blender v2.83.4 OBJ File: ''
# www.blender.org
mtllib Marker.mtl
o Circle
v 0.000000 0.000000 -1.000000
v -0.195090 0.000000 -0.980785
v -0.382683 0.000000 -0.923880
v -0.555570 0.000000 -0.831470
v -0.707107 0.000000 -0.707107
v -0.831470 0.000000 -0.555570
v -0.923880 0.000000 -0.382683
v -0.980785 0.000000 -0.195090
v -1.000000 0.000000 -0.000000
v -0.980785 0.000000 0.195090
v -0.923880 0.000000 0.382683
v -0.831470 0.000000 0.555570
v -0.707107 0.000000 0.707107
v -0.555570 0.000000 0.831470
v -0.382683 0.000000 0.923880
v -0.195090 0.000000 0.980785
v 0.000000 0.000000 1.000000
v 0.195091 0.000000 0.980785
v 0.382684 0.000000 0.923879
v 0.555571 0.000000 0.831469
v 0.707107 0.000000 0.707106
v 0.831470 0.000000 0.555570
v 0.923880 0.000000 0.382683
v 0.980785 0.000000 0.195089
v 1.000000 0.000000 -0.000001
v 0.980785 0.000000 -0.195091
v 0.923879 0.000000 -0.382684
v 0.831469 0.000000 -0.555571
v 0.707106 0.000000 -0.707108
v 0.555569 0.000000 -0.831470
v 0.382682 0.000000 -0.923880
v 0.195089 0.000000 -0.980786
v 0.000000 -0.155190 -1.000000
v -0.195090 -0.155190 -0.980785
v -0.382683 -0.155190 -0.923880
v -0.555570 -0.155190 -0.831470
v -0.707107 -0.155190 -0.707107
v -0.831470 -0.155190 -0.555570
v -0.923880 -0.155190 -0.382683
v -0.980785 -0.155190 -0.195090
v -1.000000 -0.155190 -0.000000
v -0.980785 -0.155190 0.195090
v -0.923880 -0.155190 0.382683
v -0.831470 -0.155190 0.555570
v -0.707107 -0.155190 0.707107
v -0.555570 -0.155190 0.831470
v -0.382683 -0.155190 0.923880
v -0.195090 -0.155190 0.980785
v 0.000000 -0.155190 1.000000
v 0.195091 -0.155190 0.980785
v 0.382684 -0.155190 0.923879
v 0.555571 -0.155190 0.831469
v 0.707107 -0.155190 0.707106
v 0.831470 -0.155190 0.555570
v 0.923880 -0.155190 0.382683
v 0.980785 -0.155190 0.195089
v 1.000000 -0.155190 -0.000001
v 0.980785 -0.155190 -0.195091
v 0.923879 -0.155190 -0.382684
v 0.831469 -0.155190 -0.555571
v 0.707106 -0.155190 -0.707108
v 0.555569 -0.155190 -0.831470
v 0.382682 -0.155190 -0.923880
v 0.195089 -0.155190 -0.980786
v 0.000000 0.000000 -0.890000
v -0.173632 0.000000 -0.872900
v -0.340590 0.000000 -0.822255
v -0.494459 0.000000 -0.740010
v -0.629328 0.000000 -0.629328
v -0.740011 0.000000 -0.494459
v -0.822255 0.000000 -0.340590
v -0.872900 0.000000 -0.173632
v -0.890003 0.000000 -0.000000
v -0.872900 0.000000 0.173632
v -0.822255 0.000000 0.340589
v -0.740011 0.000000 0.494459
v -0.629328 0.000000 0.629328
v -0.494459 0.000000 0.740011
v -0.340589 0.000000 0.822255
v -0.173632 0.000000 0.872900
v 0.000000 0.000000 0.890000
v 0.173633 0.000000 0.872900
v 0.340590 0.000000 0.822255
v 0.494459 0.000000 0.740010
v 0.629328 0.000000 0.629327
v 0.740011 0.000000 0.494458
v 0.822256 0.000000 0.340589
v 0.872900 0.000000 0.173631
v 0.890000 0.000000 -0.000001
v 0.872900 0.000000 -0.173633
v 0.822255 0.000000 -0.340591
v 0.740010 0.000000 -0.494460
v 0.629327 0.000000 -0.629328
v 0.494458 0.000000 -0.740011
v 0.340588 0.000000 -0.822256
v 0.173631 0.000000 -0.872900
v 0.000000 -0.155190 -0.890000
v -0.173632 -0.155190 -0.872900
v -0.340590 -0.155190 -0.822255
v -0.494459 -0.155190 -0.740010
v -0.629328 -0.155190 -0.629328
v -0.740011 -0.155190 -0.494459
v -0.822255 -0.155190 -0.340590
v -0.872900 -0.155190 -0.173632
v -0.890003 -0.155190 -0.000000
v -0.872900 -0.155190 0.173632
v -0.822255 -0.155190 0.340589
v -0.740011 -0.155190 0.494459
v -0.629328 -0.155190 0.629328
v -0.494459 -0.155190 0.740011
v -0.340589 -0.155190 0.822255
v -0.173632 -0.155190 0.872900
v 0.000000 -0.155190 0.890000
v 0.173633 -0.155190 0.872900
v 0.340590 -0.155190 0.822255
v 0.494459 -0.155190 0.740010
v 0.629328 -0.155190 0.629327
v 0.740011 -0.155190 0.494458
v 0.822256 -0.155190 0.340589
v 0.872900 -0.155190 0.173631
v 0.890000 -0.155190 -0.000001
v 0.872900 -0.155190 -0.173633
v 0.822255 -0.155190 -0.340591
v 0.740010 -0.155190 -0.494460
v 0.629327 -0.155190 -0.629328
v 0.494458 -0.155190 -0.740011
v 0.340588 -0.155190 -0.822256
v 0.173631 -0.155190 -0.872900
vt 0.000000 0.000000
vt 0.000000 0.000000
vt 0.000000 0.000000
vt 0.000000 0.000000
vt 0.000000 0.000000
vt 0.000000 0.000000
vt 0.000000 0.000000
vt 0.000000 0.000000
vt 0.000000 0.000000
vt 0.000000 0.000000
vt 0.000000 0.000000
vt 0.000000 0.000000
vt 0.000000 0.000000
vt 0.000000 0.000000
vt 0.000000 0.000000
vt 0.000000 0.000000
vt 0.000000 0.000000
vt 0.000000 0.000000
vt 0.000000 0.000000
vt 0.000000 0.000000
vt 0.000000 0.000000
vt 0.000000 0.000000
vt 0.000000 0.000000
vt 0.000000 0.000000
vt 0.000000 0.000000
vt 0.000000 0.000000
vt 0.000000 0.000000
vt 0.000000 0.000000
vt 0.000000 0.000000
vt 0.000000 0.000000
vt 0.000000 0.000000
vt 0.000000 0.000000
vt 0.000000 0.000000
vt 0.000000 0.000000
vt 0.000000 0.000000
vt 0.000000 0.000000
vt 0.000000 0.000000
vt 0.000000 0.000000
vt 0.000000 0.000000
vt 0.000000 0.000000
vt 0.000000 0.000000
vt 0.000000 0.000000
vt 0.000000 0.000000
vt 0.000000 0.000000
vt 0.000000 0.000000
vt 0.000000 0.000000
vt 0.000000 0.000000
vt 0.000000 0.000000
vt 0.000000 0.000000
vt 0.000000 0.000000
vt 0.000000 0.000000
vt 0.000000 0.000000
vt 0.000000 0.000000
vt 0.000000 0.000000
vt 0.000000 0.000000
vt 0.000000 0.000000
vt 0.000000 0.000000
vt 0.000000 0.000000
vt 0.000000 0.000000
vt 0.000000 0.000000
vt 0.000000 0.000000
vt 0.000000 0.000000
vt 0.000000 0.000000
vt 0.000000 0.000000
vt 0.000000 0.000000
vt 0.000000 0.000000
vt 0.000000 0.000000
vt 0.000000 0.000000
vt 0.000000 0.000000
vt 0.000000 0.000000
vt 0.000000 0.000000
vt 0.000000 0.000000
vt 0.000000 0.000000
vt 0.000000 0.000000
vt 0.000000 0.000000
vt 0.000000 0.000000
vt 0.000000 0.000000
vt 0.000000 0.000000
vt 0.000000 0.000000
vt 0.000000 0.000000
vt 0.000000 0.000000
vt 0.000000 0.000000
vt 0.000000 0.000000
vt 0.000000 0.000000
vt 0.000000 0.000000
vt 0.000000 0.000000
vt 0.000000 0.000000
vt 0.000000 0.000000
vt 0.000000 0.000000
vt 0.000000 0.000000
vt 0.000000 0.000000
vt 0.000000 0.000000
vt 0.000000 0.000000
vt 0.000000 0.000000
vt 0.000000 0.000000
vt 0.000000 0.000000
vt 0.000000 0.000000
vt 0.000000 0.000000
vt 0.000000 0.000000
vt 0.000000 0.000000
vt 0.000000 0.000000
vt 0.000000 0.000000
vt 0.000000 0.000000
vt 0.000000 0.000000
vt 0.000000 0.000000
vt 0.000000 0.000000
vt 0.000000 0.000000
vt 0.000000 0.000000
vt 0.000000 0.000000
vt 0.000000 0.000000
vt 0.000000 0.000000
vt 0.000000 0.000000
vt 0.000000 0.000000
vt 0.000000 0.000000
vt 0.000000 0.000000
vt 0.000000 0.000000
vt 0.000000 0.000000
vt 0.000000 0.000000
vt 0.000000 0.000000
vt 0.000000 0.000000
vt 0.000000 0.000000
vt 0.000000 0.000000
vt 0.000000 0.000000
vt 0.000000 0.000000
vt 0.000000 0.000000
vt 0.000000 0.000000
vt 0.000000 0.000000
vt 0.000000 0.000000
vn 0.8819 0.0000 -0.4714
vn -0.4714 0.0000 0.8819
vn -0.0980 0.0000 -0.9952
vn 0.7730 0.0000 -0.6344
vn -0.2903 0.0000 0.9569
vn -0.2903 0.0000 -0.9569
vn 0.6344 0.0000 -0.7730
vn -0.0980 0.0000 0.9952
vn -0.4714 0.0000 -0.8819
vn 0.4714 0.0000 -0.8819
vn 0.0980 0.0000 0.9952
vn -0.6344 0.0000 -0.7730
vn 0.2903 0.0000 -0.9569
vn 0.2903 0.0000 0.9569
vn -0.7730 0.0000 -0.6344
vn 0.0980 0.0000 -0.9952
vn 0.4714 0.0000 0.8819
vn -0.8819 0.0000 -0.4714
vn 0.6344 0.0000 0.7730
vn -0.9569 0.0000 -0.2903
vn 0.7730 0.0000 0.6344
vn -0.9952 0.0000 -0.0980
vn 0.8819 0.0000 0.4714
vn -0.9952 0.0000 0.0980
vn 0.9569 0.0000 0.2903
vn -0.9569 0.0000 0.2903
vn 0.9952 0.0000 0.0980
vn -0.8819 0.0000 0.4714
vn 0.9952 0.0000 -0.0980
vn -0.7730 0.0000 0.6344
vn 0.9569 0.0000 -0.2903
vn -0.6344 0.0000 0.7730
vn 0.0000 1.0000 0.0000
vn 0.0000 -1.0000 0.0000
usemtl None
s off
f 28/1/1 27/2/1 59/3/1 60/4/1
f 15/5/2 14/6/2 46/7/2 47/8/2
f 2/9/3 1/10/3 33/11/3 34/12/3
f 29/13/4 28/1/4 60/4/4 61/14/4
f 16/15/5 15/5/5 47/8/5 48/16/5
f 3/17/6 2/9/6 34/12/6 35/18/6
f 30/19/7 29/13/7 61/14/7 62/20/7
f 17/21/8 16/15/8 48/16/8 49/22/8
f 4/23/9 3/17/9 35/18/9 36/24/9
f 31/25/10 30/19/10 62/20/10 63/26/10
f 18/27/11 17/21/11 49/22/11 50/28/11
f 5/29/12 4/23/12 36/24/12 37/30/12
f 32/31/13 31/25/13 63/26/13 64/32/13
f 19/33/14 18/27/14 50/28/14 51/34/14
f 6/35/15 5/29/15 37/30/15 38/36/15
f 1/10/16 32/31/16 64/32/16 33/11/16
f 20/37/17 19/33/17 51/34/17 52/38/17
f 7/39/18 6/35/18 38/36/18 39/40/18
f 21/41/19 20/37/19 52/38/19 53/42/19
f 8/43/20 7/39/20 39/40/20 40/44/20
f 22/45/21 21/41/21 53/42/21 54/46/21
f 9/47/22 8/43/22 40/44/22 41/48/22
f 23/49/23 22/45/23 54/46/23 55/50/23
f 10/51/24 9/47/24 41/48/24 42/52/24
f 24/53/25 23/49/25 55/50/25 56/54/25
f 11/55/26 10/51/26 42/52/26 43/56/26
f 25/57/27 24/53/27 56/54/27 57/58/27
f 12/59/28 11/55/28 43/56/28 44/60/28
f 26/61/29 25/57/29 57/58/29 58/62/29
f 13/63/30 12/59/30 44/60/30 45/64/30
f 27/2/31 26/61/31 58/62/31 59/3/31
f 14/6/32 13/63/32 45/64/32 46/7/32
f 92/65/28 124/66/28 123/67/28 91/68/28
f 79/69/10 111/70/10 110/71/10 78/72/10
f 66/73/11 98/74/11 97/75/11 65/76/11
f 93/77/30 125/78/30 124/66/30 92/65/30
f 80/79/13 112/80/13 111/70/13 79/69/13
f 67/81/14 99/82/14 98/74/14 66/73/14
f 94/83/32 126/84/32 125/78/32 93/77/32
f 81/85/16 113/86/16 112/80/16 80/79/16
f 68/87/17 100/88/17 99/82/17 67/81/17
f 95/89/2 127/90/2 126/84/2 94/83/2
f 82/91/3 114/92/3 113/86/3 81/85/3
f 69/93/19 101/94/19 100/88/19 68/87/19
f 96/95/5 128/96/5 127/90/5 95/89/5
f 83/97/6 115/98/6 114/92/6 82/91/6
f 70/99/21 102/100/21 101/94/21 69/93/21
f 65/76/8 97/75/8 128/96/8 96/95/8
f 84/101/9 116/102/9 115/98/9 83/97/9
f 71/103/23 103/104/23 102/100/23 70/99/23
f 85/105/12 117/106/12 116/102/12 84/101/12
f 72/107/25 104/108/25 103/104/25 71/103/25
f 86/109/15 118/110/15 117/106/15 85/105/15
f 73/111/27 105/112/27 104/108/27 72/107/27
f 87/113/18 119/114/18 118/110/18 86/109/18
f 74/115/29 106/116/29 105/112/29 73/111/29
f 88/117/20 120/118/20 119/114/20 87/113/20
f 75/119/31 107/120/31 106/116/31 74/115/31
f 89/121/22 121/122/22 120/118/22 88/117/22
f 76/123/1 108/124/1 107/120/1 75/119/1
f 90/125/24 122/126/24 121/122/24 89/121/24
f 77/127/4 109/128/4 108/124/4 76/123/4
f 91/68/26 123/67/26 122/126/26 90/125/26
f 78/72/7 110/71/7 109/128/7 77/127/7
f 1/10/33 2/9/33 66/73/33 65/76/33
f 2/9/33 3/17/33 67/81/33 66/73/33
f 3/17/33 4/23/33 68/87/33 67/81/33
f 4/23/33 5/29/33 69/93/33 68/87/33
f 5/29/33 6/35/33 70/99/33 69/93/33
f 6/35/33 7/39/33 71/103/33 70/99/33
f 7/39/33 8/43/33 72/107/33 71/103/33
f 8/43/33 9/47/33 73/111/33 72/107/33
f 9/47/33 10/51/33 74/115/33 73/111/33
f 10/51/33 11/55/33 75/119/33 74/115/33
f 11/55/33 12/59/33 76/123/33 75/119/33
f 12/59/33 13/63/33 77/127/33 76/123/33
f 13/63/33 14/6/33 78/72/33 77/127/33
f 14/6/33 15/5/33 79/69/33 78/72/33
f 15/5/33 16/15/33 80/79/33 79/69/33
f 16/15/33 17/21/33 81/85/33 80/79/33
f 17/21/33 18/27/33 82/91/33 81/85/33
f 18/27/33 19/33/33 83/97/33 82/91/33
f 19/33/33 20/37/33 84/101/33 83/97/33
f 20/37/33 21/41/33 85/105/33 84/101/33
f 21/41/33 22/45/33 86/109/33 85/105/33
f 22/45/33 23/49/33 87/113/33 86/109/33
f 23/49/33 24/53/33 88/117/33 87/113/33
f 24/53/33 25/57/33 89/121/33 88/117/33
f 25/57/33 26/61/33 90/125/33 89/121/33
f 26/61/33 27/2/33 91/68/33 90/125/33
f 27/2/33 28/1/33 92/65/33 91/68/33
f 28/1/33 29/13/33 93/77/33 92/65/33
f 29/13/33 30/19/33 94/83/33 93/77/33
f 30/19/33 31/25/33 95/89/33 94/83/33
f 31/25/33 32/31/33 96/95/33 95/89/33
f 32/31/33 1/10/33 65/76/33 96/95/33
f 34/12/34 33/11/34 97/75/34 98/74/34
f 35/18/34 34/12/34 98/74/34 99/82/34
f 36/24/34 35/18/34 99/82/34 100/88/34
f 37/30/34 36/24/34 100/88/34 101/94/34
f 38/36/34 37/30/34 101/94/34 102/100/34
f 39/40/34 38/36/34 102/100/34 103/104/34
f 40/44/34 39/40/34 103/104/34 104/108/34
f 41/48/34 40/44/34 104/108/34 105/112/34
f 42/52/34 41/48/34 105/112/34 106/116/34
f 43/56/34 42/52/34 106/116/34 107/120/34
f 44/60/34 43/56/34 107/120/34 108/124/34
f 45/64/34 44/60/34 108/124/34 109/128/34
f 46/7/34 45/64/34 109/128/34 110/71/34
f 47/8/34 46/7/34 110/71/34 111/70/34
f 48/16/34 47/8/34 111/70/34 112/80/34
f 49/22/34 48/16/34 112/80/34 113/86/34
f 50/28/34 49/22/34 113/86/34 114/92/34
f 51/34/34 50/28/34 114/92/34 115/98/34
f 52/38/34 51/34/34 115/98/34 116/102/34
f 53/42/34 52/38/34 116/102/34 117/106/34
f 54/46/34 53/42/34 117/106/34 118/110/34
f 55/50/34 54/46/34 118/110/34 119/114/34
f 56/54/34 55/50/34 119/114/34 120/118/34
f 57/58/34 56/54/34 120/118/34 121/122/34
f 58/62/34 57/58/34 121/122/34 122/126/34
f 59/3/34 58/62/34 122/126/34 123/67/34
f 60/4/34 59/3/34 123/67/34 124/66/34
f 61/14/34 60/4/34 124/66/34 125/78/34
f 62/20/34 61/14/34 125/78/34 126/84/34
f 63/26/34 62/20/34 126/84/34 127/90/34
f 64/32/34 63/26/34 127/90/34 128/96/34
f 33/11/34 64/32/34 128/96/34 97/75/34
o Cube_Cube.001
v -0.104823 0.046306 0.641385
v -0.104823 -0.142506 0.641385
v -0.104823 0.046306 -0.643075
v -0.104823 -0.142506 -0.643075
v 0.084285 0.046306 0.641385
v 0.084285 -0.142506 0.641385
v 0.084285 0.046306 -0.643075
v 0.084285 -0.142506 -0.643075
v 0.641386 0.046306 0.104823
v 0.641386 -0.142506 0.104823
v -0.643075 0.046306 0.104823
v -0.643075 -0.142506 0.104823
v 0.641386 0.046306 -0.084285
v 0.641386 -0.142506 -0.084285
v -0.643075 0.046306 -0.084285
v -0.643075 -0.142506 -0.084285
vt 0.375000 0.000000
vt 0.375000 0.250000
vt 0.625000 0.250000
vt 0.625000 0.000000
vt 0.375000 0.500000
vt 0.625000 0.500000
vt 0.375000 0.750000
vt 0.625000 0.750000
vt 0.375000 1.000000
vt 0.625000 1.000000
vt 0.125000 0.500000
vt 0.125000 0.750000
vt 0.875000 0.750000
vt 0.875000 0.500000
vt 0.375000 0.000000
vt 0.375000 0.250000
vt 0.625000 0.250000
vt 0.625000 0.000000
vt 0.375000 0.500000
vt 0.625000 0.500000
vt 0.375000 0.750000
vt 0.625000 0.750000
vt 0.375000 1.000000
vt 0.625000 1.000000
vt 0.125000 0.500000
vt 0.125000 0.750000
vt 0.875000 0.750000
vt 0.875000 0.500000
vn -1.0000 0.0000 0.0000
vn 0.0000 0.0000 -1.0000
vn 1.0000 0.0000 0.0000
vn 0.0000 0.0000 1.0000
vn 0.0000 1.0000 0.0000
vn 0.0000 -1.0000 0.0000
usemtl None
s off
f 129/129/35 131/130/35 132/131/35 130/132/35
f 131/130/36 135/133/36 136/134/36 132/131/36
f 135/133/37 133/135/37 134/136/37 136/134/37
f 133/135/38 129/137/38 130/138/38 134/136/38
f 131/139/39 129/140/39 133/135/39 135/133/39
f 136/134/40 134/136/40 130/141/40 132/142/40
f 137/143/38 139/144/38 140/145/38 138/146/38
f 139/144/35 143/147/35 144/148/35 140/145/35
f 143/147/36 141/149/36 142/150/36 144/148/36
f 141/149/37 137/151/37 138/152/37 142/150/37
f 139/153/39 137/154/39 141/149/39 143/147/39
f 144/148/40 142/150/40 138/155/40 140/156/40
